<?xml version="1.0" standalone="no"?>
<!DOCTYPE svg PUBLIC "-//W3C//DTD SVG 20010904//EN"
 "http://www.w3.org/TR/2001/REC-SVG-20010904/DTD/svg10.dtd">
<svg version="1.0" xmlns="http://www.w3.org/2000/svg"
 width="466.000000pt" height="466.000000pt" viewBox="0 0 466.000000 466.000000"
 preserveAspectRatio="xMidYMid meet">
<metadata>
Created by potrace 1.14, written by Peter Selinger 2001-2017
</metadata>
<g transform="translate(0.000000,466.000000) scale(0.100000,-0.100000)"
fill="#000000" stroke="none">
<path d="M835 3751 c-121 -56 -169 -198 -109 -319 27 -54 86 -105 137 -118
l27 -6 0 -330 0 -330 -177 4 c-203 3 -236 13 -285 84 -41 60 -40 73 9 93 157
62 199 269 76 382 -92 86 -229 87 -316 3 -58 -56 -71 -89 -72 -169 0 -59 4
-77 28 -118 29 -50 104 -107 139 -107 11 0 23 -11 29 -27 28 -73 56 -117 93
-149 73 -63 86 -64 618 -64 l478 0 0 -230 0 -230 -472 0 c-286 0 -491 -5 -518
-11 -87 -19 -156 -83 -188 -174 -14 -39 -23 -49 -53 -59 -56 -19 -96 -53 -126
-104 -24 -39 -28 -58 -28 -117 1 -77 15 -113 64 -162 92 -92 245 -91 332 4 46
49 63 93 63 158 -1 98 -63 188 -149 218 -47 17 -48 32 -7 91 49 71 82 81 284
84 l177 4 3 -299 c4 -381 7 -357 -44 -372 -51 -16 -120 -86 -136 -139 -30 -99
-5 -192 68 -255 92 -78 212 -77 303 3 58 52 81 108 75 189 -6 88 -46 147 -125
186 l-62 30 0 328 -1 327 575 0 575 0 0 -330 c0 -290 -2 -330 -15 -330 -29 0
-91 -38 -128 -79 -61 -68 -74 -160 -33 -247 56 -120 194 -168 314 -108 154 77
171 292 30 394 -22 16 -52 32 -69 35 l-29 7 0 330 0 330 183 -4 c203 -3 223
-9 277 -78 49 -62 48 -76 -8 -100 -92 -39 -143 -117 -143 -215 0 -209 247
-310 395 -161 44 43 66 98 66 161 0 111 -64 192 -181 228 -9 3 -22 27 -29 53
-10 34 -29 64 -64 100 -83 84 -79 84 -633 84 l-473 0 0 230 0 230 480 0 c459
0 482 1 534 21 68 25 135 95 156 164 13 41 20 49 54 60 161 56 210 262 91 381
-149 149 -399 47 -396 -162 1 -98 52 -175 142 -214 27 -11 49 -23 49 -26 0
-12 -34 -71 -54 -92 -46 -51 -69 -56 -263 -60 l-183 -4 0 330 0 330 29 7 c41
9 104 56 129 97 32 51 44 118 31 176 -30 142 -187 221 -319 161 -60 -27 -88
-54 -116 -114 -54 -114 -7 -246 108 -306 21 -10 44 -19 53 -19 13 0 15 -40 15
-330 l0 -330 -575 0 -575 0 0 328 0 328 38 13 c125 46 188 196 133 317 -22 49
-92 111 -140 124 -55 15 -122 12 -166 -9z m183 -78 c70 -52 92 -140 53 -210
-32 -55 -66 -76 -131 -81 -69 -4 -116 19 -147 74 -50 86 -14 195 77 233 37 16
117 7 148 -16z m1207 7 c108 -52 115 -217 13 -280 -40 -24 -116 -27 -157 -5
-69 35 -104 113 -82 185 31 103 129 147 226 100z m-1776 -508 c84 -62 84 -186
1 -255 -110 -93 -282 15 -255 160 9 51 80 120 127 125 46 4 97 -7 127 -30z
m2369 6 c74 -45 93 -160 39 -232 -93 -121 -287 -56 -287 96 0 131 134 205 248
136z m-2419 -1368 c85 -24 134 -120 106 -204 -25 -72 -78 -108 -157 -108 -81
1 -146 62 -155 145 -7 60 29 124 87 154 48 25 69 28 119 13z m2426 -24 c122
-94 59 -288 -94 -288 -94 0 -152 56 -159 151 -5 70 22 115 88 149 55 29 117
24 165 -12z m-1815 -487 c99 -56 107 -195 14 -265 -31 -24 -47 -29 -95 -29
-65 0 -98 18 -137 76 -30 44 -28 129 6 176 44 63 141 82 212 42z m1230 -2 c46
-30 72 -78 72 -131 0 -142 -165 -218 -266 -123 -110 104 -41 277 110 277 36 0
61 -6 84 -23z"/>
<path d="M3893 2698 c-18 -6 -51 -27 -73 -48 l-40 -37 0 39 0 38 -55 0 -55 0
2 -322 3 -323 53 -3 52 -3 0 190 c0 105 5 213 11 241 12 55 46 103 90 125 34
18 110 20 130 3 43 -36 44 -43 49 -302 l5 -251 47 -3 46 -3 4 223 c3 203 5
227 24 263 29 55 75 85 133 85 53 0 87 -19 104 -59 7 -16 13 -118 17 -266 l5
-240 50 0 50 0 0 250 c0 263 -5 296 -47 351 -69 87 -237 84 -322 -5 l-28 -29
-31 35 c-18 20 -46 42 -64 49 -37 16 -114 17 -160 2z"/>
</g>
</svg>
